inDegrees=yes
name=ik_lifting_orientations
DataType=double
version=3
OpenSimVersion=4.5-2024-01-10-34fd6af
endheader
time	pelvis_tilt	pelvis_list	pelvis_rotation	pelvis_tx	pelvis_ty	pelvis_tz	hip_flexion_r	hip_adduction_r	hip_rotation_r	knee_angle_r	knee_angle_r_beta	ankle_angle_r	subtalar_angle_r	mtp_angle_r	hip_flexion_l	hip_adduction_l	hip_rotation_l	knee_angle_l	knee_angle_l_beta	ankle_angle_l	subtalar_angle_l	mtp_angle_l	lumbar_extension	lumbar_bending	lumbar_rotation	arm_flex_r	arm_add_r	arm_rot_r	elbow_flex_r	pro_sup_r	wrist_flex_r	wrist_dev_r	arm_flex_l	arm_add_l	arm_rot_l	elbow_flex_l	pro_sup_l	wrist_flex_l	wrist_dev_l
1.36	-17.47371349140504	-10.45685184769287	-106.5807639968635	0	0.9399999998679526	0	45.28963521181264	-10.46994875683025	0	60.68452524376572	1.059144770513326	-5.152852051610695	0	0	45.28963521181264	-10.46994875683025	0	60.68452524376572	1.059144770513326	-5.152852051610695	0	0	-89.96973216342033	4.941964461753159	83.7107070587702	71.81393057060416	-66.31677728870015	-0.2427977122091843	6.510398607895226	0.906092891872385	0	0	0	-11.00217540902618	0	89.12412045213695	0.906092891872385	0	0
1.37	-17.35319454317678	-10.76108400291107	-106.3233097342723	0	0.9399999998679526	0	45.28920829143902	-10.46751710272662	0	60.68373716030548	1.059131015862165	-5.151819960065857	0	0	45.28920829143902	-10.46751710272662	0	60.68373716030548	1.059131015862165	-5.151819960065857	0	0	-89.96579801803459	5.745136131192885	82.96277234774034	72.73636015690373	-66.14612930707864	1.272523997425452	6.736890588031801	0.9051651171124041	0	0	0	-11.00518668549788	0	89.12501710694164	0.9051651171124041	0	0
1.38	-17.30912147356188	-11.16601774607308	-106.1364310597761	0	0.9399999998679526	0	45.28876392716999	-10.46499666851362	0	60.68291632402451	1.059116689566442	-5.150751991301587	0	0	45.28876392716999	-10.46499666851362	0	60.68291632402451	1.059116689566442	-5.150751991301587	0	0	-89.95940666331491	6.605927550945839	82.13879394805369	73.44688272309872	-65.75877389110671	2.699093414454005	6.94676571744637	0.9041988633729776	0	0	0	-11.00832406517729	0	89.12595095006047	0.9041988633729776	0	0
1.39	-17.2955936203927	-11.59484975059048	-105.9587097178901	0	0.9399999998679526	0	45.28835436740285	-10.46268353218072	0	60.68215928520507	1.059103476746477	-5.149773550895656	0	0	45.28835436740285	-10.46268353218072	0	60.68215928520507	1.059103476746477	-5.149773550895656	0	0	-89.94951655048658	7.547507240752809	81.23145130348176	73.87548195809696	-65.25903784877661	4.00591431993741	7.283046167512797	0.9033077661100037	0	0	0	-11.01121851384291	0	89.12681215766041	0.9033077661100037	0	0
1.4	-17.30996713673532	-12.0847488480056	-105.6447666895335	0	0.9399999998679526	0	45.28397236502956	-10.43992183474153	0	60.67373300443463	1.058956410403336	-5.140450331302956	0	0	45.28397236502956	-10.43992183474153	0	60.67373300443463	1.058956410403336	-5.140450331302956	0	0	-89.93117546104888	8.723394534469016	80.21235775250177	74.15879367769712	-64.6797286965451	5.287900546770623	7.725586304140767	0.8936469728184724	0	0	0	-11.04289964246095	0	89.13614890780131	0.8936469728184724	0	0
1.41	-17.27985217363403	-12.5651468374169	-105.4321928095826	0	0.9399999998679526	0	45.27965866879563	-10.4184386966108	0	60.66542451486706	1.058811399904514	-5.131775830613709	0	0	45.27965866879563	-10.4184386966108	0	60.66542451486706	1.058811399904514	-5.131775830613709	0	0	-89.88729765355052	9.666629096320895	79.29119673042335	74.4822772925617	-64.28271492371378	6.424252864309226	8.302613155004334	0.8840706189486417	0	0	0	-11.07444847110113	0	89.1454040527038	0.8840706189486417	0	0
1.42	-17.28212149301174	-13.02847236985172	-105.180927777514	0	0.9399999998679526	0	45.27475702514514	-10.39584361078386	0	60.65577409193952	1.058642968250218	-5.122843939660653	0	0	45.27475702514514	-10.39584361078386	0	60.65577409193952	1.058642968250218	-5.122843939660653	0	0	-89.69091580175188	10.76278906843535	78.24355764315719	74.38060544455067	-63.66825859146057	7.186861154603915	8.969936265981762	0.8730028285990308	0	0	0	-11.11137694791489	0	89.15610061288197	0.8730028285990308	0	0
1.43	-17.08410329688107	-13.1079326771104	-104.9200612604534	0	0.9399999998679526	0	45.27458048403257	-10.39495827841045	0	60.65544349047865	1.058637198166214	-5.122486198985245	0	0	45.27458048403257	-10.39495827841045	0	60.65544349047865	1.058637198166214	-5.122486198985245	0	0	-88.68027585455198	11.86153336601632	76.90999833016062	73.86901955148359	-62.80146269062126	7.471473408113384	9.516085855283752	0.8726124446559378	0	0	0	-11.11265780297222	0	89.15647790256465	0.8726124446559378	0	0
1.44	-16.71708612472169	-12.91928284345363	-104.7062035159179	0	0.9399999998679526	0	45.27220385442123	-10.38637287820752	0	60.64993044569614	1.058540977382949	-5.119259660532632	0	0	45.27220385442123	-10.38637287820752	0	60.64993044569614	1.058540977382949	-5.119259660532632	0	0	-86.81725617892147	12.95664103612719	75.23732701814706	72.24949063333602	-61.67276820489798	6.822575779786752	10.23741841754556	0.8668798131609683	0	0	0	-11.13280885972088	0	89.16201826090652	0.8668798131609683	0	0
1.45	-16.51050083986699	-12.80743445860836	-104.5781093721698	0	0.9399999998679526	0	45.27039283572412	-10.38020837597605	0	60.64563027403816	1.058465925229117	-5.116982441107119	0	0	45.27039283572412	-10.38020837597605	0	60.64563027403816	1.058465925229117	-5.116982441107119	0	0	-85.3496387641903	13.95735964264341	73.67870943025014	71.66926772014405	-60.54624039430826	7.271017941557382	10.67865585755679	0.8624592258725223	0	0	0	-11.14848106002141	0	89.16629058221159	0.8624592258725223	0	0
1.46	-16.13257773009351	-12.59773817766777	-104.1858262077777	0	0.9399999998679526	0	45.26810448191901	-10.37213407528582	0	60.64031803556203	1.058373209177057	-5.113972500875823	0	0	45.26810448191901	-10.37213407528582	0	60.64031803556203	1.058373209177057	-5.113972500875823	0	0	-83.59077227484877	15.09058835400914	71.95572132535716	70.68580171157669	-59.49483927959787	7.286797660156521	11.38095318494918	0.8569181983719057	0	0	0	-11.16800878437624	0	89.17164576341067	0.8569181983719057	0	0
1.47	-15.63207456318899	-12.2678968224319	-103.8772509944419	0	0.9399999998679526	0	45.26591159725699	-10.36474908581545	0	60.63514088244756	1.05828285080933	-5.111257075840326	0	0	45.26591159725699	-10.36474908581545	0	60.63514088244756	1.05828285080933	-5.111257075840326	0	0	-81.59464316863996	16.03747990492575	70.10907459711638	69.79204968318415	-58.39489784614176	7.414667682145812	12.08362361549832	0.8515594250889774	0	0	0	-11.18701828370282	0	89.17682480415395	0.8515594250889774	0	0
1.48	-15.17784899721296	-11.9952782246901	-103.5285996694587	0	0.9399999998679526	0	45.26347586296824	-10.35646111080768	0	60.62945406896245	1.058183597190068	-5.108203864987127	0	0	45.26347586296824	-10.35646111080768	0	60.62945406896245	1.058183597190068	-5.108203864987127	0	0	-79.403407092126	17.04053258334435	68.16110035596644	68.28634181844242	-57.23477959950266	6.98518167116472	12.99976080947995	0.8456237386346218	0	0	0	-11.20802883807403	0	89.18256140815711	0.8456237386346218	0	0
1.49	-14.72743250122007	-11.69963156075547	-103.1680902339125	0	0.9399999998679526	0	45.26090297927659	-10.34792438054412	0	60.62341450012561	1.058078186828464	-5.105084298252319	0	0	45.26090297927659	-10.34792438054412	0	60.62341450012561	1.058078186828464	-5.105084298252319	0	0	-77.18877501266189	17.98664802685761	66.14606555526977	66.75913112674074	-55.99981133672343	6.552477745036467	14.02757543437765	0.8393253170201275	0	0	0	-11.23039358965935	0	89.18864858173758	0.8393253170201275	0	0
1.5	-14.23941744368216	-11.36001558143485	-102.9763809516159	0	0.9399999998679526	0	45.2584424972931	-10.33986080394522	0	60.61764368840866	1.057977467163491	-5.10215068360816	0	0	45.2584424972931	-10.33986080394522	0	60.61764368840866	1.057977467163491	-5.10215068360816	0	0	-74.97967565605605	18.61081897052989	64.27577643893829	65.36878406984613	-54.97106861587205	6.133844321233493	15.19708578652425	0.8332905815292362	0	0	0	-11.25184852901766	0	89.19448091338452	0.8332905815292362	0	0
1.51	-13.7685106382241	-11.04299467279979	-102.6162303055733	0	0.9399999998679526	0	45.25602493110341	-10.33208122646239	0	60.61196003977925	1.057878268781381	-5.099337336062216	0	0	45.25602493110341	-10.33208122646239	0	60.61196003977925	1.057878268781381	-5.099337336062216	0	0	-72.76901340277595	19.312317679531	62.34191040494913	64.04826062975775	-53.94263363501139	5.829861542342027	16.41656425715324	0.8273422195806789	0	0	0	-11.27304242446267	0	89.20022976877016	0.8273422195806789	0	0
1.52	-13.30961647257498	-10.75201301603278	-102.3041809690618	0	0.9399999998679526	0	45.25367159220131	-10.32474541400432	0	60.60638039630563	1.057780885631679	-5.09671057754296	0	0	45.25367159220131	-10.32474541400432	0	60.60638039630563	1.057780885631679	-5.09671057754296	0	0	-70.47148661166655	20.06886457161124	60.03382214444493	62.91263806428881	-52.61987348382087	6.047410573354815	17.66498523346702	0.8215176204098457	0	0	0	-11.29388127151902	0	89.20585901293251	0.8215176204098457	0	0
1.53	-12.85935161823453	-10.4346330658462	-101.9156415347975	0	0.9399999998679526	0	45.25108767396708	-10.31676179375687	0	60.60026872026718	1.057674216761993	-5.09386153706192	0	0	45.25108767396708	-10.31676179375687	0	60.60026872026718	1.057674216761993	-5.09386153706192	0	0	-68.09394910926019	20.81193006837536	57.72398112510114	61.54493961927279	-51.28262514472237	6.052149466577582	19.11048052186638	0.8151145672719825	0	0	0	-11.31680664716104	0	89.21204731003579	0.8151145672719825	0	0
